#!OML:ASF F:\VICON\USERDATA\INSTALL\rory3\rory3.ASF
:FULLY-SPECIFIED
:DEGREES
5018
root -6.0781 16.8412 1.72645 6.86914 -34.1524 -2.90864
lowerback 10.8036 5.64078 -3.48788
upperback 1.23532 7.10875 1.01951
thorax -5.28836 3.57549 1.90511
lowerneck -26.7475 0.322916 -10.712
upperneck 22.2887 2.21708 9.18039
head 11.4279 1.30846 5.61457
rclavicle 9.25094e-014 -1.39149e-015
rhumerus -19.0782 22.0656 -99.1514
rradius 115.957
rwrist 3.59358
rhand -7.01257 24.0684
rfingers 7.12502
rthumb 18.8587 -5.03741
lclavicle 9.25094e-014 -1.39149e-015
lhumerus 28.8137 -4.83723 53.7362
lradius 85.5311
lwrist 0.772606
lhand -16.5424 6.76814
lfingers 7.12502
lthumb 9.67684 36.5259
rfemur 7.29806 -0.887095 10.9985
rtibia 37.9449
rfoot 14.3474 6.02335
rtoes 6.18047
lfemur -45.8212 -8.7084 -4.69543
ltibia 42.9534
lfoot 12.5527 -17.8675
ltoes -11.3724
5019
root -6.108 16.9581 1.70695 7.52634 -34.6571 -3.98755
lowerback 11.2197 5.35503 -3.94427
upperback 1.26217 6.68359 1.48782
thorax -5.57268 3.38303 2.67832
lowerneck -27.1399 1.09146 -10.6656
upperneck 22.6033 3.3759 8.95301
head 11.4821 1.80121 5.72698
rclavicle -4.94228e-014 1.95803e-014
rhumerus -21.2508 22.8951 -100.962
rradius 117.028
rwrist 2.06619
rhand -5.87179 23.4122
rfingers 7.12502
rthumb 19.9556 -5.58313
lclavicle -4.94228e-014 1.95803e-014
lhumerus 33.0643 -3.3941 51.5766
lradius 76.1991
lwrist -2.90226
lhand -15.0341 6.36041
lfingers 7.12502
lthumb 11.1318 36.0452
rfemur 6.76531 0.406664 11.8451
rtibia 37.4361
rfoot 15.8007 6.00163
rtoes 6.31264
lfemur -45.808 -8.47396 -3.42479
ltibia 42.533
lfoot 14.9452 -16.2363
ltoes -12.9063
5020
root -6.1391 17.0669 1.68471 7.96342 -35.0407 -4.76489
lowerback 11.5872 5.06192 -4.76086
upperback 1.45511 6.19717 1.88245
thorax -5.6642 3.16373 3.61014
lowerneck -27.8129 1.80787 -10.4582
upperneck 22.8381 4.43362 8.70547
head 11.5783 2.26182 5.79632
rclavicle 2.67261e-014 4.12012e-015
rhumerus -22.3075 24.1317 -102.05
rradius 117.974
rwrist 1.49066
rhand -5.75636 23.6138
rfingers 7.12502
rthumb 20.0666 -5.36994
lclavicle 2.67261e-014 4.12012e-015
lhumerus 37.8728 -2.11012 48.8319
lradius 65.7117
lwrist -6.8221
lhand -13.9642 5.95144
lfingers 7.12502
lthumb 12.1636 35.5778
rfemur 6.32854 1.49016 12.4325
rtibia 37.309
rfoot 15.7691 6.14375
rtoes 7.70005
lfemur -45.6947 -8.46161 -2.4536
ltibia 41.9856
lfoot 16.345 -14.1526
ltoes -17.253
5021
root -6.168 17.1642 1.6672 8.31643 -35.2648 -5.24111
lowerback 11.6255 4.6792 -5.75868
upperback 1.7807 5.57734 2.18123
thorax -5.40085 2.87059 4.60903
lowerneck -28.5874 2.48476 -10.3171
upperneck 22.9578 5.4278 8.62266
head 11.653 2.71295 5.93013
rclavicle 1.08089e-013 -6.26172e-015
rhumerus -22.5061 25.8182 -102.643
rradius 118.777
rwrist 1.8374
rhand -5.88765 23.9773
rfingers 7.12502
rthumb 19.9404 -5.01965
lclavicle 1.08089e-013 -6.26172e-015
lhumerus 42.9018 -0.996068 45.5055
lradius 54.3739
lwrist -11.0978
lhand -13.9282 6.32069
lfingers 7.12502
lthumb 12.1983 35.945
rfemur 5.85208 2.08079 12.6868
rtibia 37.5435
rfoot 13.096 4.84029
rtoes 2.52877
lfemur -45.6094 -8.82728 -1.70888
ltibia 41.2531
lfoot 16.8258 -11.7314
ltoes -21.2692
5022
root -6.18986 17.2462 1.64952 8.70532 -35.1963 -5.68303
lowerback 11.6149 4.21877 -6.57172
upperback 2.0298 4.87903 2.41914
thorax -5.12887 2.53065 5.4595
lowerneck -29.0664 3.06288 -10.3001
upperneck 23.0073 6.24908 8.73234
head 11.6556 3.10219 6.11639
rclavicle -4.39314e-014 -7.95139e-015
rhumerus -22.235 27.73 -102.663
rradius 119.704
rwrist 2.779
rhand -5.92649 24.0911
rfingers 7.12502
rthumb 19.903 -4.90976
lclavicle -4.39314e-014 -7.95139e-015
lhumerus 47.9904 -0.508114 41.3903
lradius 42.7091
lwrist -14.4863
lhand -13.7073 8.61876
lfingers 7.12502
lthumb 12.4113 38.2303
rfemur 5.33488 1.99897 12.8881
rtibia 38.0971
rfoot 9.55842 2.61069
rtoes -3.48246
lfemur -45.5787 -9.25914 -1.11204
ltibia 40.2746
lfoot 16.7243 -9.59197
ltoes -23.6453
5023
root -6.20526 17.3175 1.63211 8.97382 -34.9138 -5.97317
lowerback 11.8492 3.75201 -7.3591
upperback 2.17614 4.15097 2.52553
thorax -5.05728 2.17905 6.14789
lowerneck -29.5081 3.57737 -9.94962
upperneck 23.0473 6.86935 8.69791
head 11.6907 3.4093 6.16249
rclavicle -5.66039e-014 1.39149e-014
rhumerus -21.3701 29.7628 -102.144
rradius 120.753
rwrist 3.84162
rhand -6.19804 24.2502
rfingers 7.12502
rthumb 19.642 -4.7775
lclavicle -5.66039e-014 1.39149e-014
lhumerus 52.6084 -1.109 35.2283
lradius 32.4371
lwrist -14.4066
lhand -10.4369 12.6672
lfingers 7.12502
lthumb 15.5629 42.061
rfemur 4.8472 1.3334 12.9313
rtibia 38.8988
rfoot 5.96015 0.0247984
rtoes -7.87353
lfemur -45.4959 -9.83352 -0.757907
ltibia 39.0162
lfoot 15.9677 -8.20265
ltoes -24.4318
5024
root -6.21448 17.3765 1.6141 9.37246 -34.4823 -6.3079
lowerback 12.3027 3.22469 -7.99956
upperback 2.18402 3.33621 2.57662
thorax -5.203 1.79378 6.70419
lowerneck -30.1658 4.06554 -9.30167
upperneck 23.1643 7.39618 8.45218
head 11.8317 3.66611 6.08474
rclavicle -1.10127e-013 -2.26615e-014
rhumerus -19.6687 32.0982 -101.156
rradius 121.931
rwrist 4.8593
rhand -6.46169 23.9182
rfingers 7.12502
rthumb 19.3885 -5.13522
lclavicle -1.10127e-013 -2.26615e-014
lhumerus 55.5041 -4.17184 23.0428
lradius 26.3049
lwrist -6.99935
lhand -8.70024 16.7214
lfingers 7.12502
lthumb 17.235 45.9771
rfemur 4.22624 0.260382 12.9853
rtibia 39.853
rfoot 2.66178 -2.29812
rtoes -7.66214
lfemur -45.558 -10.6031 -0.339289
ltibia 37.541
lfoot 14.7302 -7.81507
ltoes -24.6023
5025
root -6.22053 17.4238 1.60296 9.91987 -33.98 -6.72575
lowerback 12.842 2.64505 -8.44327
upperback 2.11507 2.46696 2.6692
thorax -5.44115 1.38734 7.2104
lowerneck -30.9694 4.49241 -8.83075
upperneck 23.2731 7.91232 8.24121
head 11.9921 3.90597 6.05664
rclavicle 8.59744e-014 1.66979e-014
rhumerus -17.0524 34.5947 -99.489
rradius 123.306
rwrist 5.96878
rhand -6.56086 23.2452
rfingers 7.12502
rthumb 19.2931 -5.81779
lclavicle 8.59744e-014 1.66979e-014
lhumerus 56.2656 -5.357 16.0997
lradius 23.7453
lwrist -9.17592
lhand -6.90897 15.7493
lfingers 7.12502
lthumb 18.9584 44.8454
rfemur 3.51022 -1.14007 13.0521
rtibia 40.8451
rfoot -0.433082 -3.74775
rtoes -6.06097
lfemur -45.7682 -11.5087 0.162474
ltibia 35.9474
lfoot 13.7412 -8.06853
ltoes -27.2458
5026
root -6.21975 17.4601 1.61543 10.5157 -33.5561 -7.28505
lowerback 13.3401 2.15476 -8.4647
upperback 2.0362 1.78084 2.85226
thorax -5.67738 1.06595 7.54802
lowerneck -31.5254 4.82718 -8.63152
upperneck 23.1866 8.45635 7.83402
head 12.0308 4.10984 5.97589
rclavicle -1.70955e-014 3.97569e-016
rhumerus -13.9187 36.5609 -96.9725
rradius 124.885
rwrist 6.97558
rhand -6.30281 22.5758
rfingers 7.12502
rthumb 19.5412 -6.46218
lclavicle -1.70955e-014 3.97569e-016
lhumerus 56.3688 -4.98901 13.7589
lradius 22.8918
lwrist -16.6422
lhand -4.59685 13.9809
lfingers 7.12502
lthumb 21.1807 42.8438
rfemur 2.8818 -2.75004 13.0901
rtibia 41.8397
rfoot -2.21343 -4.34029
rtoes -3.25971
lfemur -45.9091 -12.4445 0.644078
ltibia 34.3559
lfoot 14.2859 -7.65299
ltoes -29.5004
5027
root -6.21368 17.4837 1.65304 11.1357 -33.5087 -7.84953
lowerback 13.6727 1.90637 -8.12941
upperback 1.7735 1.48387 3.06803
thorax -6.08448 0.945233 7.64698
lowerneck -31.1625 4.96173 -8.90607
upperneck 22.6941 8.91089 7.23605
head 11.7497 4.22094 5.80715
rclavicle 8.28932e-014 -3.85642e-014
rhumerus -11.0081 37.774 -93.9865
rradius 126.618
rwrist 7.86848
rhand -5.86436 21.9426
rfingers 7.12502
rthumb 19.9627 -7.05207
lclavicle 8.28932e-014 -3.85642e-014
lhumerus 56.5525 -1.7364 20.8953
lradius 22.5752
lwrist -29.0119
lhand -1.98694 11.7362
lfingers 7.12502
lthumb 23.6859 40.2968
rfemur 2.31554 -4.26165 12.9169
rtibia 42.7774
rfoot -3.52299 -4.73763
rtoes -3.51034
lfemur -45.9051 -13.2244 0.940769
ltibia 32.9006
lfoot 15.8201 -6.58704
ltoes -27.0973
